<?xml version="1.0" encoding="UTF-8" standalone="no"?>
<!-- Created with Inkscape (http://www.inkscape.org/) -->

<svg
   width="860"
   height="288"
   viewBox="0 0 860 288"
   version="1.1"
   id="svg1"
   inkscape:version="1.3.1 (5ab75fa947, 2023-11-03)"
   sodipodi:docname="loginbox.svg"
   xmlns:inkscape="http://www.inkscape.org/namespaces/inkscape"
   xmlns:sodipodi="http://sodipodi.sourceforge.net/DTD/sodipodi-0.dtd"
   xmlns="http://www.w3.org/2000/svg"
   xmlns:svg="http://www.w3.org/2000/svg">
  <sodipodi:namedview
     id="namedview1"
     pagecolor="#d1d1d1"
     bordercolor="#111111"
     borderopacity="1"
     inkscape:showpageshadow="0"
     inkscape:pageopacity="0"
     inkscape:pagecheckerboard="1"
     inkscape:deskcolor="#d1d1d1"
     inkscape:document-units="px"
     inkscape:zoom="0.40378396"
     inkscape:cx="330.62234"
     inkscape:cy="43.340008"
     inkscape:current-layer="layer1"
     showgrid="true">
    <inkscape:grid
       id="grid3"
       units="px"
       originx="0"
       originy="0"
       spacingx="1"
       spacingy="1"
       empcolor="#0099e5"
       empopacity="0.30196078"
       color="#0099e5"
       opacity="0.14901961"
       empspacing="5"
       dotted="false"
       gridanglex="30"
       gridanglez="30"
       visible="true" />
  </sodipodi:namedview>
  <defs
     id="defs1" />
  <g
     inkscape:label="Layer 1"
     inkscape:groupmode="layer"
     id="layer1">
    <rect
       style="fill:#a8a8a8;fill-opacity:1;stroke-width:0.199999;paint-order:stroke fill markers"
       id="rect1"
       width="860"
       height="288"
       x="0"
       y="0" />
    <path
       id="rect2"
       style="fill:#d9d9d9;fill-opacity:1;stroke-width:0.2;paint-order:stroke fill markers"
       d="m 0,0 v 2 h 858 l 2,-2 z" />
    <path
       id="path3"
       style="fill:#595959;fill-opacity:1;stroke-width:0.2;paint-order:stroke fill markers"
       d="m 860,288 v -2 H 2 l -2,2 z" />
    <rect
       style="fill:#a8a8a8;fill-opacity:1;stroke-width:0.2;paint-order:stroke fill markers"
       id="rect4"
       width="258"
       height="258"
       x="587"
       y="15" />
    <path
       id="rect5"
       style="fill:#d9d9d9;fill-opacity:1;stroke-width:0.199999;paint-order:stroke fill markers"
       d="M 0 2 L 0 288 L 2 286 L 2 2 L 0 2 z " />
    <path
       id="path5"
       style="fill:#595959;fill-opacity:1;stroke-width:0.199999;paint-order:stroke fill markers"
       d="M 860,286 V 0 l -2,2 v 284 z" />
    <rect
       style="fill:#a8a8a8;fill-opacity:1;stroke-width:0.2;paint-order:stroke fill markers"
       id="rect7"
       width="572"
       height="258"
       x="14.999999"
       y="15" />
    <path
       id="rect8"
       style="fill:#d9d9d9;fill-opacity:1;stroke-width:0.2;paint-order:stroke fill markers"
       d="M 15 15 L 15 17 L 585 17 L 587 15 L 15 15 z " />
    <path
       id="path8"
       style="fill:#595959;fill-opacity:1;stroke-width:0.2;paint-order:stroke fill markers"
       d="m 587,273 v -2 H 17 l -2,2 z" />
    <path
       id="rect9"
       style="fill:#d9d9d9;fill-opacity:1;stroke-width:0.2;paint-order:stroke fill markers"
       d="M 15 17 L 15 273 L 17 271 L 17 17 L 15 17 z " />
    <path
       id="path9"
       style="fill:#595959;fill-opacity:1;stroke-width:0.2;paint-order:stroke fill markers"
       d="M 587,271 V 15 l -2,2 v 254 z" />
    <path
       id="path10"
       style="fill:#d9d9d9;fill-opacity:1;stroke-width:0.2;paint-order:stroke fill markers"
       d="m 587,17 v 256 l 2,-2 V 17 Z" />
    <path
       id="path11"
       style="fill:#595959;fill-opacity:1;stroke-width:0.2;paint-order:stroke fill markers"
       d="M 845,271 V 15 l -2,2 v 254 z" />
    <path
       id="rect11"
       style="fill:#d9d9d9;fill-opacity:1;stroke-width:0.2;paint-order:stroke fill markers"
       d="M 587 15 L 587 17 L 843 17 L 845 15 L 587 15 z " />
    <path
       id="path12"
       style="fill:#595959;fill-opacity:1;stroke-width:0.2;paint-order:stroke fill markers"
       d="m 845,273 v -2 H 589 l -2,2 z" />
  </g>
</svg>
